<?xml version="1.0" encoding="UTF-8" standalone="no"?>
<svg width="220px" height="200px" viewBox="0 0 220 200" version="1.1" xmlns="http://www.w3.org/2000/svg" xmlns:xlink="http://www.w3.org/1999/xlink" xmlns:sketch="http://www.bohemiancoding.com/sketch/ns">
    <!-- Generator: Sketch 3.4.2 (15855) - http://www.bohemiancoding.com/sketch -->
    <title>Untitled</title>
    <desc>Created with Sketch.</desc>
    <defs></defs>
    <g id="Page-1" stroke="none" stroke-width="1" fill="none" fill-rule="evenodd" sketch:type="MSPage">
        <path d="M0,0 L0,200 L220,200 L220,0 L0,0 L0,0 Z M211.25,191.25 L8.75,191.25 L8.75,8.75 L211.25,8.75 L211.25,191.25 L211.25,191.25 Z M135.79925,156.25 L130.19925,140.45025 L101.49975,140.45025 L95.9,156.25 L86.5,156.25 L111.0995,88.751 L120.79925,88.751 L145.599,156.25 L135.79925,156.25 L135.79925,156.25 Z M118.8995,109.05075 C117.59975,105.65075 116.6995,102.95075 115.8995,99.451 L115.69975,99.451 C114.8995,102.751 113.8995,105.75075 112.59975,109.151 L103.89975,133.1505 L127.69925,133.1505 L118.8995,109.05075 L118.8995,109.05075 Z M168.6495,182.14975 C155.84975,182.14975 147.75,177.05 147.75,167.55 C147.75,161.65 151.54975,156.95025 155.94975,154.65 C152.94975,153.25 151.04975,150.65025 151.04975,147.35025 C151.04975,143.85025 153.1495,140.6505 156.6495,139.0505 C151.7495,136.2505 149.34975,131.1505 149.34975,124.85075 C149.34975,114.35075 157.24975,105.651 171.14925,105.651 C174.04925,105.651 176.34925,105.95075 178.94925,106.551 L193.849,106.551 L193.849,113.65075 L187.449,113.65075 C190.049,115.65075 191.649,119.1505 191.649,123.35075 C191.649,134.0505 184.249,141.85025 170.0495,141.85025 C167.9495,141.85025 165.4495,141.5505 163.7495,141.2505 C161.5495,142.15075 160.5495,143.7505 160.5495,145.35025 C160.5495,148.15025 163.0495,149.25025 169.0495,149.25025 L178.24925,149.25025 C189.04925,149.25025 195.049,154.4505 195.049,163.45025 C195.049,173.94975 184.24925,182.14975 168.6495,182.14975 L168.6495,182.14975 Z M175.7495,156.75 L163.0495,156.75 C159.1495,158.75 156.6495,162.04975 156.6495,165.84975 C156.6495,171.74975 162.24925,174.9495 170.0495,174.9495 C180.24925,174.9495 186.149,170.64975 186.149,164.5495 C186.14925,159.75 182.74925,156.75 175.7495,156.75 L175.7495,156.75 Z M170.7495,112.3505 C162.8495,112.3505 158.14975,117.2505 158.14975,123.95025 C158.14975,131.35025 162.64975,135.35025 170.4495,135.35025 C177.9495,135.35025 182.74925,131.2505 182.74925,123.95025 C182.74925,116.65075 178.34925,112.3505 170.7495,112.3505 L170.7495,112.3505 Z M33.93025,36.47025 L33.93025,39.75025 L32.15025,39.75025 L32.15025,36.47025 L26.25,36.47025 L26.05,35.05025 L31.61,26.25 L33.93,26.25 L33.93,34.81025 L36.19,34.81025 L36.19,36.47025 L33.93025,36.47025 L33.93025,36.47025 Z M32.17025,28.01025 L32.15025,28.01025 L27.85,34.89025 C29.03,34.83025 31.41,34.83025 32.17025,34.83025 L32.17025,28.01025 L32.17025,28.01025 Z M41.88575,39.75025 L39.8455,39.75025 C40.8655,35.49 42.6655,30.55 43.8455,27.97 C43.2255,28.01 39.0255,28.01 37.8455,28.01 L37.8455,26.25 L45.86575,26.25 L45.86575,27.81 C44.26575,31.27025 42.68575,36.03025 41.88575,39.75025 L41.88575,39.75025 Z M118.07475,39.75025 L118.07475,28.09 L115.53475,29.09 L115.2345,27.41 L118.53475,26.25 L119.93475,26.25 L119.93475,39.75025 L118.07475,39.75025 L118.07475,39.75025 Z M128.38025,39.9305 C125.56025,39.9305 123.62,38.03025 123.62,32.99025 C123.62,28.31 125.88025,26.09 128.64025,26.09 C131.5605,26.09 133.38025,28.03 133.38025,32.85025 C133.38025,37.97025 130.7805,39.9305 128.38025,39.9305 L128.38025,39.9305 Z M128.5405,27.57 C126.86025,27.57 125.5405,29.05 125.5405,32.83025 C125.5405,36.41025 126.40025,38.3905 128.4605,38.3905 C130.0805,38.3905 131.4605,36.8105 131.4605,32.97025 C131.4605,29.11 130.4805,27.57 128.5405,27.57 L128.5405,27.57 Z M139.5325,39.75025 L137.49225,39.75025 C138.51225,35.49 140.3125,30.55 141.4925,27.97 C140.87275,28.01 136.6725,28.01 135.49225,28.01 L135.49225,26.25 L143.5125,26.25 L143.5125,27.81 C141.9125,31.27025 140.3325,36.03025 139.5325,39.75025 L139.5325,39.75025 Z M144.28,42.1505 C145.56,40.7705 145.6,39.8505 145.14,39.2705 C144.58,38.5705 145.04,37.4905 145.99975,37.4905 C147.47975,37.4905 148.14,40.0105 145.03975,42.8305 L144.28,42.1505 L144.28,42.1505 Z M154.586,39.95025 C151.866,39.95025 150.40575,38.53025 150.40575,36.57025 C150.40575,34.89025 151.726,33.79025 153.146,32.89025 C151.526,31.97025 150.626,30.97025 150.626,29.55025 C150.626,27.41 152.366,25.99 154.966,25.99 C157.38625,25.99 158.86625,27.37025 158.86625,29.19025 C158.86625,30.77025 157.626,31.77025 156.26625,32.67025 C157.9265,33.57025 159.14625,34.65025 159.14625,36.29025 C159.146,38.63025 157.106,39.95025 154.586,39.95025 L154.586,39.95025 Z M154.586,33.65025 C153.366,34.39025 152.30625,35.17025 152.30625,36.39025 C152.30625,37.63025 153.24625,38.43025 154.80625,38.43025 C156.146,38.43025 157.24625,37.75025 157.24625,36.47025 C157.246,35.13025 155.966,34.37025 154.586,33.65025 L154.586,33.65025 Z M154.78625,27.45 C153.346,27.45 152.466,28.23 152.466,29.35 C152.466,30.43 153.36625,31.13 154.80625,31.91 C156.34625,30.95 157.00625,30.27 157.00625,29.35 C157.006,28.31 156.266,27.45 154.78625,27.45 L154.78625,27.45 Z M166.672,39.95025 C163.932,39.95025 162.232,37.99025 162.232,34.37025 C162.232,28.51025 165.272,26.09 169.052,26.09 C169.53225,26.09 169.99225,26.11 170.252,26.15 L170.252,27.75 C169.832,27.67 169.47225,27.65 168.93225,27.65 C166.31225,27.65 164.792,29.19 164.252,31.95 C164.212,32.17 164.152,32.49 164.07175,32.79 L164.09175,32.83 C164.752,31.83 165.852,31.23 167.352,31.23 C169.872,31.23 171.49225,32.93 171.49225,35.15 C171.49225,38.03025 169.572,39.95025 166.672,39.95025 L166.672,39.95025 Z M166.95225,32.73025 C165.292,32.73025 164.232,33.93025 164.232,35.49025 C164.232,37.11025 165.212,38.43025 166.792,38.43025 C168.612,38.43025 169.612,37.19025 169.612,35.45025 C169.612,33.87025 168.672,32.73025 166.95225,32.73025 L166.95225,32.73025 Z M178.52775,39.95025 C175.8075,39.95025 174.3475,38.53025 174.3475,36.57025 C174.3475,34.89025 175.66725,33.79025 177.0875,32.89025 C175.46775,31.97025 174.5675,30.97025 174.5675,29.55025 C174.5675,27.41 176.3075,25.99 178.9075,25.99 C181.3275,25.99 182.8075,27.37025 182.8075,29.19025 C182.8075,30.77025 181.56775,31.77025 180.2075,32.67025 C181.86775,33.57025 183.08775,34.65025 183.08775,36.29025 C183.088,38.63025 181.04775,39.95025 178.52775,39.95025 L178.52775,39.95025 Z M178.52775,33.65025 C177.3075,34.39025 176.2475,35.17025 176.2475,36.39025 C176.2475,37.63025 177.1875,38.43025 178.7475,38.43025 C180.08775,38.43025 181.1875,37.75025 181.1875,36.47025 C181.1875,35.13025 179.90775,34.37025 178.52775,33.65025 L178.52775,33.65025 Z M178.7275,27.45 C177.2875,27.45 176.40775,28.23 176.40775,29.35 C176.40775,30.43 177.30775,31.13 178.7475,31.91 C180.2875,30.95 180.94775,30.27 180.94775,29.35 C180.94775,28.31 180.2075,27.45 178.7275,27.45 L178.7275,27.45 Z M185.88975,39.75025 L185.88975,38.27025 L188.42975,35.35 C190.69,32.73 191.2895,31.41 191.2895,29.99 C191.2895,28.69 190.52975,27.67 188.92975,27.67 C188.04975,27.67 187.04975,28.01 186.2895,28.49 L186.02975,26.85 C186.94975,26.39 188.02975,26.07 189.40975,26.07 C191.92975,26.07 193.25,27.65 193.25,29.71 C193.25,31.57 192.3495,33.23025 189.96975,36.01025 L188.1895,38.09025 L188.1895,38.11025 C189.38975,38.05025 191.46975,38.03025 193.75,38.03025 L193.75,39.75025 L185.88975,39.75025 L185.88975,39.75025 Z" id="Shape" fill="#0A3FB4" sketch:type="MSShapeGroup"></path>
    </g>
</svg>