<?xml version="1.0" encoding="UTF-8" standalone="no"?>
<svg version="1.1" xmlns="http://www.w3.org/2000/svg" xmlns:xlink="http://www.w3.org/1999/xlink" x="0px" y="0px"
	 width="220px" height="200px">
<path fill="#474544" transform="scale(0.25)" d="M0,0v800h880V0H0z M845,765H35V35h810V765z M543.197,625l-22.4-63.199H405.999L383.6,625H346l98.398-269.996
	h38.799L582.396,625H543.197z M475.598,436.203c-5.199-13.6-8.8-24.4-12-38.399h-0.799c-3.201,13.2-7.201,25.199-12.4,38.8
	l-34.8,95.998h95.198L475.598,436.203z M674.598,728.599c-51.199,0-83.598-20.399-83.598-58.399c0-23.6,15.199-42.399,32.799-51.6
	c-12-5.6-19.6-15.999-19.6-29.199c0-14,8.399-26.799,22.399-33.199c-19.6-11.2-29.199-31.6-29.199-56.799
	c0-42,31.6-76.799,87.198-76.799c11.6,0,20.8,1.199,31.2,3.6h59.599v28.399h-25.6c10.4,8,16.8,21.999,16.8,38.8
	c0,42.799-29.6,73.998-86.398,73.998c-8.4,0-18.4-1.199-25.2-2.399c-8.8,3.601-12.8,10-12.8,16.399c0,11.2,10,15.6,34,15.6h36.799
	c43.2,0,67.199,20.801,67.199,56.8C780.196,695.799,736.997,728.599,674.598,728.599z M702.998,627h-50.8
	c-15.6,8-25.6,21.199-25.6,36.399c0,23.6,22.399,36.399,53.6,36.399c40.799,0,64.398-17.199,64.398-41.6
	C744.597,639,730.997,627,702.998,627z M682.998,449.402c-31.6,0-50.399,19.6-50.399,46.399c0,29.6,18,45.6,49.199,45.6
	c30,0,49.199-16.399,49.199-45.6C730.997,466.603,713.397,449.402,682.998,449.402z M135.721,145.881v13.12h-7.12v-13.12H105
	l-0.8-5.68L126.44,105h9.28v34.241h9.04v6.64H135.721z M128.681,112.041h-0.08L111.4,139.561c4.72-0.24,14.24-0.24,17.281-0.24
	V112.041z M167.543,159.001h-8.161c4.08-17.041,11.28-36.801,16-47.121c-2.48,0.16-19.28,0.16-24,0.16V105h32.081v6.24
	C177.063,125.081,170.743,144.121,167.543,159.001z M472.299,159.001V112.36l-10.16,4l-1.201-6.72l13.201-4.64h5.6v54.001H472.299z
	 M513.521,159.722c-11.28,0-19.041-7.601-19.041-27.761c0-18.721,9.041-27.601,20.081-27.601c11.681,0,18.96,7.76,18.96,27.041
	C533.521,151.881,523.122,159.722,513.521,159.722z M514.162,110.28c-6.721,0-12,5.92-12,21.041c0,14.32,3.439,22.241,11.68,22.241
	c6.48,0,12-6.32,12-21.681C525.842,116.44,521.922,110.28,514.162,110.28z M558.13,159.001h-8.161
	c4.08-17.041,11.281-36.801,16.001-47.121c-2.479,0.16-19.28,0.16-24.001,0.16V105h32.081v6.24
	C567.65,125.081,561.33,144.121,558.13,159.001z M577.12,168.602c5.12-5.52,5.28-9.2,3.44-11.52c-2.24-2.8-0.4-7.12,3.439-7.12
	c5.92,0,8.561,10.08-3.84,21.36L577.12,168.602z M618.344,159.801c-10.88,0-16.721-5.68-16.721-13.52
	c0-6.72,5.281-11.12,10.961-14.72c-6.48-3.68-10.08-7.68-10.08-13.36c0-8.561,6.96-14.241,17.36-14.241
	c9.681,0,15.601,5.521,15.601,12.801c0,6.32-4.961,10.32-10.4,13.92c6.641,3.6,11.52,7.92,11.52,14.48
	C636.584,154.521,628.424,159.801,618.344,159.801z M618.344,134.601c-4.88,2.96-9.119,6.08-9.119,10.96c0,4.96,3.76,8.16,10,8.16
	c5.359,0,9.76-2.72,9.76-7.84C628.984,140.521,623.864,137.481,618.344,134.601z M619.145,109.8c-5.761,0-9.281,3.12-9.281,7.6
	c0,4.32,3.601,7.12,9.361,10.24c6.16-3.84,8.8-6.56,8.8-10.24C628.024,113.24,625.064,109.8,619.145,109.8z M666.688,159.801
	c-10.96,0-17.76-7.84-17.76-22.32c0-23.44,12.16-33.121,27.28-33.121c1.921,0,3.761,0.08,4.8,0.24v6.4
	c-1.68-0.32-3.119-0.4-5.279-0.4c-10.48,0-16.561,6.16-18.721,17.2c-0.16,0.88-0.4,2.16-0.721,3.36l0.08,0.16
	c2.641-4,7.041-6.4,13.041-6.4c10.08,0,16.561,6.8,16.561,15.68C685.969,152.121,678.288,159.801,666.688,159.801z M667.809,130.921
	c-6.641,0-10.881,4.8-10.881,11.04c0,6.48,3.92,11.76,10.24,11.76c7.28,0,11.28-4.96,11.28-11.92
	C678.448,135.481,674.688,130.921,667.809,130.921z M714.111,159.801c-10.881,0-16.721-5.68-16.721-13.52
	c0-6.72,5.279-11.12,10.96-14.72c-6.479-3.68-10.08-7.68-10.08-13.36c0-8.561,6.96-14.241,17.36-14.241
	c9.68,0,15.6,5.521,15.6,12.801c0,6.32-4.959,10.32-10.4,13.92c6.641,3.6,11.521,7.92,11.521,14.48
	C732.352,154.521,724.191,159.801,714.111,159.801z M714.111,134.601c-4.881,2.96-9.121,6.08-9.121,10.96c0,4.96,3.76,8.16,10,8.16
	c5.361,0,9.76-2.72,9.76-7.84C724.75,140.521,719.631,137.481,714.111,134.601z M714.91,109.8c-5.76,0-9.279,3.12-9.279,7.6
	c0,4.32,3.6,7.12,9.359,10.24c6.16-3.84,8.801-6.56,8.801-10.24C723.791,113.24,720.83,109.8,714.91,109.8z M743.559,159.001v-5.92
	l10.16-11.681c9.041-10.48,11.439-15.76,11.439-21.44c0-5.2-3.039-9.28-9.439-9.28c-3.52,0-7.52,1.36-10.561,3.28l-1.039-6.56
	c3.68-1.84,8-3.12,13.52-3.12c10.08,0,15.361,6.32,15.361,14.56c0,7.44-3.602,14.081-13.121,25.201l-7.121,8.32v0.08
	c4.801-0.24,13.121-0.32,22.242-0.32v6.88H743.559z"/>
</svg>
