<?xml version="1.0"?>
<svg width="1404" height="720" xmlns="http://www.w3.org/2000/svg">
<style type="text/css" media="screen">
    <![CDATA[
        path {
            fill: slategrey;
            stroke: black;
            stroke-width: 3;
            -webkit-transition: all 350ms;
        }
        path:hover {
            fill: green;
        }
    ]]>
</style>

 <g>
  <title>background</title>
  <rect fill="none" id="canvas_background" height="722" width="1406" y="-1" x="-1"/>
 </g>
 <g>
  <title>Layer 1</title>
  <g id="svg_1">
   <path id="svg_2" d="m1227.999268,650c0,45 33,70 73,70c60,0 103,-51 103,-106c0,-41 -23,-72 -72,-72c-62,0 -104,54 -104,108m-884.999084,-279c-14,64 -22,90 -45,136c-23,45 -62.000031,100 -111.000153,100c-46.000061,0 -59.000061,-33 -59.000061,-79c0,-104 93.000137,-259 186.000214,-259c24,0 39,5 48,16l-19,86zm240,-74c14,-5 26,-9 37,-3s11,23 4,54l-56,261c-4,18 -5,33 -5,46c0,33 22,64 65,64c70,0 130.999023,-50 173.999023,-112l-23,-22c0,0 -35,35 -66,35c-12.999023,0 -20.999023,-7 -14.999023,-31l54.999023,-236c7,-31 13,-51 13,-70c0,-18 -6,-64 -63.999023,-64c-45,0 -88,21 -123,72l4,6zm74,-221c-4,45 28,81 69.999023,81c45,0 79,-33 83,-75c4,-43 -28,-82 -70,-82c-42.999023,0 -78.999023,33 -82.999023,76m540.999084,528c-14,27 -82,115 -199.000061,115c-112,0 -168,-80 -168,-184c0,-89 43,-187 110,-245c64,-56 122.000061,-71 181.000061,-71c89,0 125,49 125,98c0,39 -27,87 -81,87c-30,0 -54,-16 -65,-48c14,-12 19,-31 19,-48c0,-15 -12,-34 -36,-34c-63.000061,0 -127.000061,78 -127.000061,210c0,71 37,132 109.000061,132c37,0 76,-7 113,-36l19,24zm-688.999084,-19c0,0 -32,37 -66,37c-14,0 -21,-12 -16,-34l74,-342.000031c-9,-6.999969 -73,-26.999969 -151,-26.999969c-88,0 -173.000183,26 -248.000221,111c-77.999969,89 -101.999962,189 -101.999962,248c0,74 31.999985,141 107.999962,141s165.000221,-67 225.000221,-218l3,1c0,0 -44,104 -44,155c0,30 8,62 57,62c66,0 140,-50 183,-112l-23,-22z"/>
  </g>
 </g>
</svg>