<?xml version="1.0" encoding="UTF-8" standalone="no"?>
<svg width="110px" height="100px" viewBox="0 0 110 100" version="1.1" xmlns="http://www.w3.org/2000/svg" xmlns:xlink="http://www.w3.org/1999/xlink" xmlns:sketch="http://www.bohemiancoding.com/sketch/ns">
    <!-- Generator: Sketch 3.4.2 (15855) - http://www.bohemiancoding.com/sketch -->
    <title>Untitled</title>
    <desc>Created with Sketch.</desc>
    <defs></defs>
    <g id="Page-1" stroke="none" stroke-width="1" fill="none" fill-rule="evenodd" sketch:type="MSPage">
        <g id="ag_hover" sketch:type="MSLayerGroup" fill="#0A3FB4">
            <g id="Page-1" sketch:type="MSShapeGroup">
                <path d="M0,0 L0,100 L110,100 L110,0 L0,0 L0,0 L0,0 Z M105.625,95.625 L4.375,95.625 L4.375,4.375 L105.625,4.375 L105.625,95.625 L105.625,95.625 L105.625,95.625 Z M67.899625,78.125 L65.099625,70.225125 L50.749875,70.225125 L47.95,78.125 L43.25,78.125 L55.54975,44.3755 L60.399625,44.3755 L72.7995,78.125 L67.899625,78.125 L67.899625,78.125 L67.899625,78.125 Z M59.44975,54.525375 C58.799875,52.825375 58.34975,51.475375 57.94975,49.7255 L57.849875,49.7255 C57.44975,51.3755 56.94975,52.875375 56.299875,54.5755 L51.949875,66.57525 L63.849625,66.57525 L59.44975,54.525375 L59.44975,54.525375 L59.44975,54.525375 Z M84.32475,91.074875 C77.924875,91.074875 73.875,88.525 73.875,83.775 C73.875,80.825 75.774875,78.475125 77.974875,77.325 C76.474875,76.625 75.524875,75.325125 75.524875,73.675125 C75.524875,71.925125 76.57475,70.32525 78.32475,69.52525 C75.87475,68.12525 74.674875,65.57525 74.674875,62.425375 C74.674875,57.175375 78.624875,52.8255 85.574625,52.8255 C87.024625,52.8255 88.174625,52.975375 89.474625,53.2755 L96.9245,53.2755 L96.9245,56.825375 L93.7245,56.825375 C95.0245,57.825375 95.8245,59.57525 95.8245,61.675375 C95.8245,67.02525 92.1245,70.925125 85.02475,70.925125 C83.97475,70.925125 82.72475,70.77525 81.87475,70.62525 C80.77475,71.075375 80.27475,71.87525 80.27475,72.675125 C80.27475,74.075125 81.52475,74.625125 84.52475,74.625125 L89.124625,74.625125 C94.524625,74.625125 97.5245,77.22525 97.5245,81.725125 C97.5245,86.974875 92.124625,91.074875 84.32475,91.074875 L84.32475,91.074875 L84.32475,91.074875 Z M87.87475,78.375 L81.52475,78.375 C79.57475,79.375 78.32475,81.024875 78.32475,82.924875 C78.32475,85.874875 81.124625,87.47475 85.02475,87.47475 C90.124625,87.47475 93.0745,85.324875 93.0745,82.27475 C93.074625,79.875 91.374625,78.375 87.87475,78.375 L87.87475,78.375 L87.87475,78.375 Z M85.37475,56.17525 C81.42475,56.17525 79.074875,58.62525 79.074875,61.975125 C79.074875,65.675125 81.324875,67.675125 85.22475,67.675125 C88.97475,67.675125 91.374625,65.62525 91.374625,61.975125 C91.374625,58.325375 89.174625,56.17525 85.37475,56.17525 L85.37475,56.17525 L85.37475,56.17525 Z M16.965125,18.235125 L16.965125,19.875125 L16.075125,19.875125 L16.075125,18.235125 L13.125,18.235125 L13.025,17.525125 L15.805,13.125 L16.965,13.125 L16.965,17.405125 L18.095,17.405125 L18.095,18.235125 L16.965125,18.235125 L16.965125,18.235125 L16.965125,18.235125 Z M16.085125,14.005125 L16.075125,14.005125 L13.925,17.445125 C14.515,17.415125 15.705,17.415125 16.085125,17.415125 L16.085125,14.005125 L16.085125,14.005125 L16.085125,14.005125 Z M20.942875,19.875125 L19.92275,19.875125 C20.43275,17.745 21.33275,15.275 21.92275,13.985 C21.61275,14.005 19.51275,14.005 18.92275,14.005 L18.92275,13.125 L22.932875,13.125 L22.932875,13.905 C22.132875,15.635125 21.342875,18.015125 20.942875,19.875125 L20.942875,19.875125 L20.942875,19.875125 Z M59.037375,19.875125 L59.037375,14.045 L57.767375,14.545 L57.61725,13.705 L59.267375,13.125 L59.967375,13.125 L59.967375,19.875125 L59.037375,19.875125 L59.037375,19.875125 L59.037375,19.875125 Z M64.190125,19.96525 C62.780125,19.96525 61.81,19.015125 61.81,16.495125 C61.81,14.155 62.940125,13.045 64.320125,13.045 C65.78025,13.045 66.690125,14.015 66.690125,16.425125 C66.690125,18.985125 65.39025,19.96525 64.190125,19.96525 L64.190125,19.96525 L64.190125,19.96525 Z M64.27025,13.785 C63.430125,13.785 62.77025,14.525 62.77025,16.415125 C62.77025,18.205125 63.200125,19.19525 64.23025,19.19525 C65.04025,19.19525 65.73025,18.40525 65.73025,16.485125 C65.73025,14.555 65.24025,13.785 64.27025,13.785 L64.27025,13.785 L64.27025,13.785 Z M69.76625,19.875125 L68.746125,19.875125 C69.256125,17.745 70.15625,15.275 70.74625,13.985 C70.436375,14.005 68.33625,14.005 67.746125,14.005 L67.746125,13.125 L71.75625,13.125 L71.75625,13.905 C70.95625,15.635125 70.16625,18.015125 69.76625,19.875125 L69.76625,19.875125 L69.76625,19.875125 Z M72.14,21.07525 C72.78,20.38525 72.8,19.92525 72.57,19.63525 C72.29,19.28525 72.52,18.74525 72.999875,18.74525 C73.739875,18.74525 74.07,20.00525 72.519875,21.41525 L72.14,21.07525 L72.14,21.07525 L72.14,21.07525 Z M77.293,19.975125 C75.933,19.975125 75.202875,19.265125 75.202875,18.285125 C75.202875,17.445125 75.863,16.895125 76.573,16.445125 C75.763,15.985125 75.313,15.485125 75.313,14.775125 C75.313,13.705 76.183,12.995 77.483,12.995 C78.693125,12.995 79.433125,13.685125 79.433125,14.595125 C79.433125,15.385125 78.813,15.885125 78.133125,16.335125 C78.96325,16.785125 79.573125,17.325125 79.573125,18.145125 C79.573,19.315125 78.553,19.975125 77.293,19.975125 L77.293,19.975125 L77.293,19.975125 Z M77.293,16.825125 C76.683,17.195125 76.153125,17.585125 76.153125,18.195125 C76.153125,18.815125 76.623125,19.215125 77.403125,19.215125 C78.073,19.215125 78.623125,18.875125 78.623125,18.235125 C78.623,17.565125 77.983,17.185125 77.293,16.825125 L77.293,16.825125 L77.293,16.825125 Z M77.393125,13.725 C76.673,13.725 76.233,14.115 76.233,14.675 C76.233,15.215 76.683125,15.565 77.403125,15.955 C78.173125,15.475 78.503125,15.135 78.503125,14.675 C78.503,14.155 78.133,13.725 77.393125,13.725 L77.393125,13.725 L77.393125,13.725 Z M83.336,19.975125 C81.966,19.975125 81.116,18.995125 81.116,17.185125 C81.116,14.255125 82.636,13.045 84.526,13.045 C84.766125,13.045 84.996125,13.055 85.126,13.075 L85.126,13.875 C84.916,13.835 84.736125,13.825 84.466125,13.825 C83.156125,13.825 82.396,14.595 82.126,15.975 C82.106,16.085 82.076,16.245 82.035875,16.395 L82.045875,16.415 C82.376,15.915 82.926,15.615 83.676,15.615 C84.936,15.615 85.746125,16.465 85.746125,17.575 C85.746125,19.015125 84.786,19.975125 83.336,19.975125 L83.336,19.975125 L83.336,19.975125 Z M83.476125,16.365125 C82.646,16.365125 82.116,16.965125 82.116,17.745125 C82.116,18.555125 82.606,19.215125 83.396,19.215125 C84.306,19.215125 84.806,18.595125 84.806,17.725125 C84.806,16.935125 84.336,16.365125 83.476125,16.365125 L83.476125,16.365125 L83.476125,16.365125 Z M89.263875,19.975125 C87.90375,19.975125 87.17375,19.265125 87.17375,18.285125 C87.17375,17.445125 87.833625,16.895125 88.54375,16.445125 C87.733875,15.985125 87.28375,15.485125 87.28375,14.775125 C87.28375,13.705 88.15375,12.995 89.45375,12.995 C90.66375,12.995 91.40375,13.685125 91.40375,14.595125 C91.40375,15.385125 90.783875,15.885125 90.10375,16.335125 C90.933875,16.785125 91.543875,17.325125 91.543875,18.145125 C91.544,19.315125 90.523875,19.975125 89.263875,19.975125 L89.263875,19.975125 L89.263875,19.975125 Z M89.263875,16.825125 C88.65375,17.195125 88.12375,17.585125 88.12375,18.195125 C88.12375,18.815125 88.59375,19.215125 89.37375,19.215125 C90.043875,19.215125 90.59375,18.875125 90.59375,18.235125 C90.59375,17.565125 89.953875,17.185125 89.263875,16.825125 L89.263875,16.825125 L89.263875,16.825125 Z M89.36375,13.725 C88.64375,13.725 88.203875,14.115 88.203875,14.675 C88.203875,15.215 88.653875,15.565 89.37375,15.955 C90.14375,15.475 90.473875,15.135 90.473875,14.675 C90.473875,14.155 90.10375,13.725 89.36375,13.725 L89.36375,13.725 L89.36375,13.725 Z M92.944875,19.875125 L92.944875,19.135125 L94.214875,17.675 C95.345,16.365 95.64475,15.705 95.64475,14.995 C95.64475,14.345 95.264875,13.835 94.464875,13.835 C94.024875,13.835 93.524875,14.005 93.14475,14.245 L93.014875,13.425 C93.474875,13.195 94.014875,13.035 94.704875,13.035 C95.964875,13.035 96.625,13.825 96.625,14.855 C96.625,15.785 96.17475,16.615125 94.984875,18.005125 L94.09475,19.045125 L94.09475,19.055125 C94.694875,19.025125 95.734875,19.015125 96.875,19.015125 L96.875,19.875125 L92.944875,19.875125 L92.944875,19.875125 L92.944875,19.875125 Z" id="Shape"></path>
            </g>
        </g>
    </g>
</svg>