<?xml version="1.0" encoding="UTF-8" standalone="no"?>
<svg width="89px" height="46px" viewBox="0 0 89 46" version="1.1" xmlns="http://www.w3.org/2000/svg" xmlns:xlink="http://www.w3.org/1999/xlink" xmlns:sketch="http://www.bohemiancoding.com/sketch/ns">
    <!-- Generator: Sketch 3.4.2 (15855) - http://www.bohemiancoding.com/sketch -->
    <title>Slice 1</title>
    <desc>Created with Sketch.</desc>
    <defs></defs>
    <g id="Page-1" stroke="none" stroke-width="1" fill="none" fill-rule="evenodd" sketch:type="MSPage">
        <g id="aic_hover" sketch:type="MSLayerGroup" fill="#0A3FB4">
            <g id="Page-1" sketch:type="MSShapeGroup">
                <g id="aic">
                    <g id="Layer-1">
                        <g id="svg_1">
                            <path d="M77.8432584,41.2037037 C77.8432584,44.0562678 79.9351388,45.6410256 82.4707513,45.6410256 C86.2741701,45.6410256 88.9999536,42.4081197 88.9999536,38.9216524 C88.9999536,36.3226496 87.5419764,34.3575499 84.435851,34.3575499 C80.5056516,34.3575499 77.8432584,37.7806268 77.8432584,41.2037037 L77.8432584,41.2037037 L77.8432584,41.2037037 Z M21.7428892,23.5178063 C20.8554248,27.5747863 20.3483023,29.2229345 18.8903251,32.1388889 C17.4323478,34.991453 14.9601237,38.4779202 11.8539906,38.4779202 C8.93803229,38.4779202 8.11395821,36.3860399 8.11395821,33.4700855 C8.11395821,26.8774929 14.009266,17.0519943 19.9045701,17.0519943 C21.4259376,17.0519943 22.3767923,17.3689459 22.9473051,18.0662393 L21.7428892,23.5178063 L21.7428892,23.5178063 L21.7428892,23.5178063 Z M36.9565644,18.8269231 C37.8440288,18.5099715 38.6047125,18.2564103 39.302006,18.6367521 C39.9992994,19.017094 39.9992994,20.0947293 39.5555672,22.0598291 L36.0057097,38.6047009 C35.7521484,39.7457265 35.6887581,40.6965812 35.6887581,41.5206553 C35.6887581,43.6125356 37.083345,45.5776353 39.8091285,45.5776353 C44.2464504,45.5776353 48.1131976,42.4081197 50.8389811,38.4779202 L49.3810039,37.0833333 C49.3810039,37.0833333 47.1623429,39.3019943 45.1972432,39.3019943 C44.373231,39.3019943 43.8661085,38.8582621 44.2464504,37.3368946 L47.7328557,22.3767806 C48.1765879,20.4116809 48.5569298,19.1438746 48.5569298,17.9394587 C48.5569298,16.798433 48.1765879,13.8824786 44.5000117,13.8824786 C41.6474476,13.8824786 38.9216641,15.2136752 36.7030031,18.4465812 L36.9565644,18.8269231 L36.9565644,18.8269231 L36.9565644,18.8269231 Z M41.6474476,4.81766382 C41.3938863,7.67022792 43.4223763,9.9522792 46.0847076,9.9522792 C48.9372717,9.9522792 51.0925423,7.86039886 51.3461036,5.1980057 C51.5996648,2.47222222 49.5711748,0 46.9087816,0 C44.1830601,0 41.9010088,2.09188034 41.6474476,4.81766382 L41.6474476,4.81766382 L41.6474476,4.81766382 Z M75.941549,38.2877493 C75.0540847,39.9992877 70.7435433,45.5776353 63.3268728,45.5776353 C56.2271577,45.5776353 52.6773002,40.5064103 52.6773002,33.9138177 C52.6773002,28.2720798 55.4030836,22.0598291 59.6502346,18.3831909 C63.7072147,14.8333333 67.3838567,13.8824786 71.1238852,13.8824786 C76.7656231,13.8824786 79.0476744,16.988604 79.0476744,20.0947293 C79.0476744,22.5669516 77.3361359,25.6096866 73.913059,25.6096866 C72.0113496,25.6096866 70.4899821,24.5954416 69.7926886,22.5669516 C70.680153,21.8062678 70.9971046,20.6018519 70.9971046,19.5242165 C70.9971046,18.5733618 70.2364208,17.3689459 68.7150533,17.3689459 C64.7214597,17.3689459 60.6644796,22.3133903 60.6644796,30.6809117 C60.6644796,35.1816239 63.0099212,39.048433 67.5740277,39.048433 C69.9194693,39.048433 72.3916915,38.6047009 74.7371331,36.7663818 L75.941549,38.2877493 L75.941549,38.2877493 L75.941549,38.2877493 Z M32.2656812,37.0833333 C32.2656812,37.0833333 30.2371912,39.4287749 28.0819205,39.4287749 C27.1944561,39.4287749 26.7507239,38.6680912 27.0676755,37.2735043 L31.7585587,15.5940151 C31.1880459,15.1502849 27.1310658,13.8824786 22.1866214,13.8824786 C16.6082738,13.8824786 11.2200855,15.5306268 6.46580962,20.9188034 C1.52136714,26.5605413 6.33903159e-08,32.8995726 6.33903159e-08,36.6396011 C6.33903159e-08,41.3304843 2.02848914,45.5776353 6.8461515,45.5776353 C11.6638139,45.5776353 17.3055672,41.3304843 21.108986,31.758547 L21.299157,31.8219373 C21.299157,31.8219373 18.5099832,38.4145299 18.5099832,41.6474359 C18.5099832,43.5491453 19.0171057,45.5776353 22.123231,45.5776353 C26.3069917,45.5776353 30.9978749,42.4081197 33.7236584,38.4779202 L32.2656812,37.0833333 L32.2656812,37.0833333 L32.2656812,37.0833333 Z" id="svg_2"></path>
                        </g>
                    </g>
                </g>
            </g>
        </g>
    </g>
</svg>