<?xml version="1.0" encoding="UTF-8" standalone="no"?>
<svg width="104px" height="32px" viewBox="0 0 104 32" version="1.1" xmlns="http://www.w3.org/2000/svg" xmlns:xlink="http://www.w3.org/1999/xlink" xmlns:sketch="http://www.bohemiancoding.com/sketch/ns">
    <!-- Generator: Sketch 3.4.2 (15855) - http://www.bohemiancoding.com/sketch -->
    <title>Slice 1</title>
    <desc>Created with Sketch.</desc>
    <defs></defs>
    <g id="Page-1" stroke="none" stroke-width="1" fill="none" fill-rule="evenodd" sketch:type="MSPage">
        <g id="стм" sketch:type="MSLayerGroup" fill="#0A3FB4">
            <g id="Page-1" sketch:type="MSShapeGroup">
                <g id="Path-+-Path-+-Fill-4">
                    <path d="M43.5439149,31.4557447 L52.2854468,31.4557447 L52.2854468,8.10221277 L61.0657021,8.10221277 L61.0657021,0.506893617 L34.669617,0.506893617 L34.669617,8.10221277 L43.5439149,8.10221277 L43.5439149,31.4557447 L43.5439149,31.4557447 L43.5439149,31.4557447 Z" id="Path"></path>
                    <path d="M86.2547234,24.352766 L94.6731915,14.250383 L94.6731915,31.4557447 L103.414723,31.4557447 L103.414723,0.506893617 L96.0871489,0.506893617 L85.5289362,12.7479149 L74.9707234,0.506893617 L67.6409362,0.506893617 L67.6409362,31.4557447 L76.3791489,31.4557447 L76.3791489,14.250383 L84.7987234,24.352766 L86.2547234,24.352766 L86.2547234,24.352766 L86.2547234,24.352766 Z" id="Path"></path>
                    <path d="M28.8821277,26.9671489 C25.8108085,29.7685106 21.750383,31.6537872 16.6599149,31.6537872 C7.32646809,31.6537872 0.290978723,24.8550638 0.290978723,15.8822979 C0.290978723,6.904 7.32646809,0.0886808511 16.6599149,0.0886808511 C21.750383,0.0886808511 25.8108085,1.98391489 28.8821277,4.78417021 L24.1645106,11.338383 C22.3754894,9.98195745 20.1328511,8.54034043 16.6444255,8.54034043 C12.1923404,8.54034043 9.39319149,11.8849362 9.39319149,15.8822979 C9.39319149,19.866383 12.1923404,23.2198298 16.6444255,23.2198298 C20.1328511,23.2198298 22.3754894,21.776 24.1645106,20.4195745 L28.8821277,26.9671489" id="Fill-4"></path>
                </g>
            </g>
        </g>
    </g>
</svg>